# xmcd CD database file
#
# Track frame offsets:
#	150
#	23300
#	42412
#	62252
#	80977
#	97177
#	117492
#	134057
#	152682
#	176152
#	197509
#	218640
#	238740
#	260235
#
# Disc length: 3753 seconds
#
# Revision: 0
# Processed by: cddbd v1.5.2PL0 Copyright (c) Steve Scherf et al.
# Submitted via: CDex 1.70beta2
#
DISCID=cb0ea70e
DTITLE=VARIOS ARTISTAS - A TODO MERENGUE
DYEAR=1998
DGENRE=Merengue
TTITLE0=SI ELLA SUPIERA - CAÑA BRAVA
TTITLE1=TE ENGAÑE - LA TRAMPA
TTITLE2=MEJOR NO ME QUIERAS - EDDY HERRERA
TTITLE3=ROMO DAO - LOS SABROSOS DEL MERENGUE
TTITLE4=NO TE OLVIDARE - LIMI-T 21
TTITLE5=NO TE QUIERE - LA BANDA GORDA
TTITLE6=FIEBRE BASS BANDA - ALEX BASS BANDA
TTITLE7=DAME TU QUERER - LOS OCHO DE COLOMBIA
TTITLE8=CUANDO LLEGA EL AMOR - LIMI-T 21
TTITLE9=Y QUIEN PUEDE SER - LOS SABROSOS DEL MERENGUE
TTITLE10=EL HOMBRE CARIÑOSO - BANDA GORDA
TTITLE11=TONTO CORAZON - GRUPO CONTAGIO
TTITLE12=MI MORE - EDDY HERRERA
TTITLE13=ESA NENA NO ME QUIERE - KARIS
EXTD=YEAR: 1998
EXTT0=
EXTT1=
EXTT2=
EXTT3=
EXTT4=
EXTT5=
EXTT6=
EXTT7=
EXTT8=
EXTT9=
EXTT10=
EXTT11=
EXTT12=
EXTT13=
PLAYORDER=
